# xmcd
#
# Track frame offsets: 
#        150
#        35295
#        56505
#        71127
#        100001
#        127730
#        155825
#
# Disc length: 3094 seconds
#
# Revision: 0
# Processed by: cddbd v1.5.2PL0 Copyright (c) Steve Scherf et al.
# Submitted via: ExactAudioCopy v0.95b3
#
DISCID=560c1407
DTITLE=Chicago Transit Authority  - Fillmore West - Disc 2
DYEAR=1900
DGENRE=
TTITLE0=Introduction
TTITLE1=Listen
TTITLE2=The Road
TTITLE3=I_m A Man
TTITLE4=South California Purples
TTITLE5=Beginnings
TTITLE6=Liberation (cuts)
EXTD=
EXTT0=
EXTT1=
EXTT2=
EXTT3=
EXTT4=
EXTT5=
EXTT6=
PLAYORDER=
